<?xml version="1.0" encoding="UTF-8" standalone="no"?>
<!DOCTYPE svg PUBLIC "-//W3C//DTD SVG 1.1//EN" "http://www.w3.org/Graphics/SVG/1.1/DTD/svg11.dtd">
<svg width="100%" height="100%" viewBox="0 0 800 600" version="1.1" xmlns="http://www.w3.org/2000/svg" xmlns:xlink="http://www.w3.org/1999/xlink" xml:space="preserve" xmlns:serif="http://www.serif.com/" style="fill-rule:evenodd;clip-rule:evenodd;stroke-linecap:round;stroke-linejoin:round;stroke-miterlimit:1.5;">
    <circle cx="250" cy="250" r="30" style="fill:none;stroke:black;stroke-width:3px;"/CAD-EDU/>
    <circle cx="550" cy="250" r="30" style="fill:none;stroke:black;stroke-width:3px;"/CAD-EDU/>
    <circle cx="350" cy="350" r="30" style="fill:none;stroke:black;stroke-width:3px;"/CAD-EDU/>
    <circle cx="450" cy="350" r="30" style="fill:none;stroke:black;stroke-width:3px;"/CAD-EDU/>
    <path d="M450,400L350,400C336.202,400 323.702,394.399 314.652,385.348L214.652,285.348C205.601,276.298 200,263.798 200,250C200,222.404 222.404,200 250,200L550,200L550.323,200.001C577.77,200.175 600,222.512 600,250C600,263.798 594.399,276.298 585.348,285.348L485.348,385.348C476.298,394.399 463.798,400 450,400Z" style="fill:none;stroke:black;stroke-width:3px;"/CAD-EDU/>
    <path d="M580,200L660,200" style="fill:none;stroke:black;stroke-width:3px;"/CAD-EDU/>
    <path d="M480,400L660,400" style="fill:none;stroke:black;stroke-width:3px;"/CAD-EDU/>
    <path d="M640,400L640,200" style="fill:none;stroke:black;stroke-width:3px;"/CAD-EDU/>
    <path d="M200,230L200,140" style="fill:none;stroke:black;stroke-width:3px;"/CAD-EDU/>
    <path d="M600,230L600,140" style="fill:none;stroke:black;stroke-width:3px;"/CAD-EDU/>
    <path d="M200,160L600,160" style="fill:none;stroke:black;stroke-width:3px;"/CAD-EDU/>
    <path d="M574,226L580,226L574,220L574,226L640,160L637,157L643,163" style="fill:none;stroke:black;stroke-width:3px;"/CAD-EDU/>
    <g transform="matrix(1,0,0,1,-9.144,-0.16)">
        <g transform="matrix(16,0,0,16,380,150)">
            <path d="M0.539,-0L0.04,-0L0.04,-0.105L0.219,-0.286C0.255,-0.323 0.284,-0.355 0.306,-0.38C0.328,-0.405 0.344,-0.427 0.354,-0.448C0.364,-0.468 0.369,-0.49 0.369,-0.513C0.369,-0.542 0.361,-0.563 0.345,-0.577C0.33,-0.591 0.309,-0.598 0.282,-0.598C0.255,-0.598 0.228,-0.592 0.202,-0.579C0.176,-0.566 0.149,-0.548 0.12,-0.525L0.038,-0.622C0.058,-0.639 0.08,-0.656 0.103,-0.672C0.126,-0.687 0.153,-0.7 0.184,-0.71C0.214,-0.719 0.25,-0.724 0.293,-0.724C0.34,-0.724 0.38,-0.716 0.413,-0.699C0.447,-0.682 0.473,-0.659 0.492,-0.629C0.51,-0.601 0.519,-0.568 0.519,-0.531C0.519,-0.492 0.511,-0.456 0.496,-0.423C0.48,-0.39 0.457,-0.358 0.428,-0.326C0.398,-0.294 0.362,-0.259 0.32,-0.22L0.228,-0.134L0.228,-0.127L0.539,-0.127L0.539,-0Z" style="fill-rule:nonzero;"/CAD-EDU/>
        </g>
        <g transform="matrix(16,0,0,16,389.152,150)">
            <path d="M0.535,-0.357C0.535,-0.28 0.527,-0.215 0.51,-0.16C0.494,-0.105 0.468,-0.063 0.431,-0.034C0.394,-0.005 0.346,0.01 0.285,0.01C0.199,0.01 0.136,-0.022 0.096,-0.087C0.056,-0.152 0.036,-0.242 0.036,-0.357C0.036,-0.434 0.044,-0.5 0.06,-0.555C0.076,-0.61 0.102,-0.652 0.139,-0.681C0.176,-0.71 0.224,-0.725 0.285,-0.725C0.37,-0.725 0.433,-0.693 0.474,-0.628C0.515,-0.563 0.535,-0.473 0.535,-0.357ZM0.186,-0.357C0.186,-0.276 0.193,-0.215 0.207,-0.173C0.221,-0.133 0.247,-0.112 0.285,-0.112C0.322,-0.112 0.348,-0.132 0.363,-0.173C0.378,-0.214 0.385,-0.275 0.385,-0.357C0.385,-0.438 0.378,-0.5 0.363,-0.541C0.348,-0.582 0.322,-0.603 0.285,-0.603C0.247,-0.603 0.221,-0.582 0.207,-0.541C0.193,-0.5 0.186,-0.438 0.186,-0.357Z" style="fill-rule:nonzero;"/CAD-EDU/>
        </g>
        <g transform="matrix(16,0,0,16,398.304,150)">
            <path d="M0.535,-0.357C0.535,-0.28 0.527,-0.215 0.51,-0.16C0.494,-0.105 0.468,-0.063 0.431,-0.034C0.394,-0.005 0.346,0.01 0.285,0.01C0.199,0.01 0.136,-0.022 0.096,-0.087C0.056,-0.152 0.036,-0.242 0.036,-0.357C0.036,-0.434 0.044,-0.5 0.06,-0.555C0.076,-0.61 0.102,-0.652 0.139,-0.681C0.176,-0.71 0.224,-0.725 0.285,-0.725C0.37,-0.725 0.433,-0.693 0.474,-0.628C0.515,-0.563 0.535,-0.473 0.535,-0.357ZM0.186,-0.357C0.186,-0.276 0.193,-0.215 0.207,-0.173C0.221,-0.133 0.247,-0.112 0.285,-0.112C0.322,-0.112 0.348,-0.132 0.363,-0.173C0.378,-0.214 0.385,-0.275 0.385,-0.357C0.385,-0.438 0.378,-0.5 0.363,-0.541C0.348,-0.582 0.322,-0.603 0.285,-0.603C0.247,-0.603 0.221,-0.582 0.207,-0.541C0.193,-0.5 0.186,-0.438 0.186,-0.357Z" style="fill-rule:nonzero;"/CAD-EDU/>
        </g>
        <g transform="matrix(16,0,0,16,407.456,150)">
            <path d="M0.719,-0.556C0.781,-0.556 0.828,-0.54 0.86,-0.508C0.891,-0.477 0.907,-0.426 0.907,-0.356L0.907,-0L0.758,-0L0.758,-0.319C0.758,-0.398 0.731,-0.437 0.676,-0.437C0.637,-0.437 0.609,-0.423 0.592,-0.395C0.575,-0.367 0.567,-0.327 0.567,-0.274L0.567,-0L0.418,-0L0.418,-0.319C0.418,-0.398 0.391,-0.437 0.336,-0.437C0.295,-0.437 0.266,-0.422 0.251,-0.391C0.235,-0.36 0.227,-0.315 0.227,-0.257L0.227,-0L0.078,-0L0.078,-0.546L0.192,-0.546L0.212,-0.476L0.22,-0.476C0.237,-0.504 0.26,-0.524 0.289,-0.537C0.318,-0.55 0.348,-0.556 0.379,-0.556C0.419,-0.556 0.453,-0.55 0.481,-0.537C0.508,-0.524 0.53,-0.503 0.545,-0.476L0.558,-0.476C0.575,-0.504 0.598,-0.524 0.627,-0.537C0.657,-0.55 0.688,-0.556 0.719,-0.556Z" style="fill-rule:nonzero;"/CAD-EDU/>
        </g>
        <g transform="matrix(16,0,0,16,423.168,150)">
            <path d="M0.719,-0.556C0.781,-0.556 0.828,-0.54 0.86,-0.508C0.891,-0.477 0.907,-0.426 0.907,-0.356L0.907,-0L0.758,-0L0.758,-0.319C0.758,-0.398 0.731,-0.437 0.676,-0.437C0.637,-0.437 0.609,-0.423 0.592,-0.395C0.575,-0.367 0.567,-0.327 0.567,-0.274L0.567,-0L0.418,-0L0.418,-0.319C0.418,-0.398 0.391,-0.437 0.336,-0.437C0.295,-0.437 0.266,-0.422 0.251,-0.391C0.235,-0.36 0.227,-0.315 0.227,-0.257L0.227,-0L0.078,-0L0.078,-0.546L0.192,-0.546L0.212,-0.476L0.22,-0.476C0.237,-0.504 0.26,-0.524 0.289,-0.537C0.318,-0.55 0.348,-0.556 0.379,-0.556C0.419,-0.556 0.453,-0.55 0.481,-0.537C0.508,-0.524 0.53,-0.503 0.545,-0.476L0.558,-0.476C0.575,-0.504 0.598,-0.524 0.627,-0.537C0.657,-0.55 0.688,-0.556 0.719,-0.556Z" style="fill-rule:nonzero;"/CAD-EDU/>
        </g>
    </g>
    <g transform="matrix(6.12323e-17,1,-1,6.12323e-17,800.16,-109.312)">
        <g transform="matrix(16,0,0,16,380,150)">
            <path d="M0.413,-0L0.262,-0L0.262,-0.413C0.262,-0.43 0.262,-0.452 0.263,-0.481C0.264,-0.509 0.265,-0.534 0.266,-0.555C0.263,-0.551 0.256,-0.544 0.245,-0.534C0.234,-0.523 0.223,-0.514 0.214,-0.506L0.132,-0.44L0.059,-0.531L0.289,-0.714L0.413,-0.714L0.413,-0Z" style="fill-rule:nonzero;"/CAD-EDU/>
        </g>
        <g transform="matrix(16,0,0,16,389.152,150)">
            <path d="M0.535,-0.357C0.535,-0.28 0.527,-0.215 0.51,-0.16C0.494,-0.105 0.468,-0.063 0.431,-0.034C0.394,-0.005 0.346,0.01 0.285,0.01C0.199,0.01 0.136,-0.022 0.096,-0.087C0.056,-0.152 0.036,-0.242 0.036,-0.357C0.036,-0.434 0.044,-0.5 0.06,-0.555C0.076,-0.61 0.102,-0.652 0.139,-0.681C0.176,-0.71 0.224,-0.725 0.285,-0.725C0.37,-0.725 0.433,-0.693 0.474,-0.628C0.515,-0.563 0.535,-0.473 0.535,-0.357ZM0.186,-0.357C0.186,-0.276 0.193,-0.215 0.207,-0.173C0.221,-0.133 0.247,-0.112 0.285,-0.112C0.322,-0.112 0.348,-0.132 0.363,-0.173C0.378,-0.214 0.385,-0.275 0.385,-0.357C0.385,-0.438 0.378,-0.5 0.363,-0.541C0.348,-0.582 0.322,-0.603 0.285,-0.603C0.247,-0.603 0.221,-0.582 0.207,-0.541C0.193,-0.5 0.186,-0.438 0.186,-0.357Z" style="fill-rule:nonzero;"/CAD-EDU/>
        </g>
        <g transform="matrix(16,0,0,16,398.304,150)">
            <path d="M0.535,-0.357C0.535,-0.28 0.527,-0.215 0.51,-0.16C0.494,-0.105 0.468,-0.063 0.431,-0.034C0.394,-0.005 0.346,0.01 0.285,0.01C0.199,0.01 0.136,-0.022 0.096,-0.087C0.056,-0.152 0.036,-0.242 0.036,-0.357C0.036,-0.434 0.044,-0.5 0.06,-0.555C0.076,-0.61 0.102,-0.652 0.139,-0.681C0.176,-0.71 0.224,-0.725 0.285,-0.725C0.37,-0.725 0.433,-0.693 0.474,-0.628C0.515,-0.563 0.535,-0.473 0.535,-0.357ZM0.186,-0.357C0.186,-0.276 0.193,-0.215 0.207,-0.173C0.221,-0.133 0.247,-0.112 0.285,-0.112C0.322,-0.112 0.348,-0.132 0.363,-0.173C0.378,-0.214 0.385,-0.275 0.385,-0.357C0.385,-0.438 0.378,-0.5 0.363,-0.541C0.348,-0.582 0.322,-0.603 0.285,-0.603C0.247,-0.603 0.221,-0.582 0.207,-0.541C0.193,-0.5 0.186,-0.438 0.186,-0.357Z" style="fill-rule:nonzero;"/CAD-EDU/>
        </g>
        <g transform="matrix(16,0,0,16,407.456,150)">
            <path d="M0.719,-0.556C0.781,-0.556 0.828,-0.54 0.86,-0.508C0.891,-0.477 0.907,-0.426 0.907,-0.356L0.907,-0L0.758,-0L0.758,-0.319C0.758,-0.398 0.731,-0.437 0.676,-0.437C0.637,-0.437 0.609,-0.423 0.592,-0.395C0.575,-0.367 0.567,-0.327 0.567,-0.274L0.567,-0L0.418,-0L0.418,-0.319C0.418,-0.398 0.391,-0.437 0.336,-0.437C0.295,-0.437 0.266,-0.422 0.251,-0.391C0.235,-0.36 0.227,-0.315 0.227,-0.257L0.227,-0L0.078,-0L0.078,-0.546L0.192,-0.546L0.212,-0.476L0.22,-0.476C0.237,-0.504 0.26,-0.524 0.289,-0.537C0.318,-0.55 0.348,-0.556 0.379,-0.556C0.419,-0.556 0.453,-0.55 0.481,-0.537C0.508,-0.524 0.53,-0.503 0.545,-0.476L0.558,-0.476C0.575,-0.504 0.598,-0.524 0.627,-0.537C0.657,-0.55 0.688,-0.556 0.719,-0.556Z" style="fill-rule:nonzero;"/CAD-EDU/>
        </g>
        <g transform="matrix(16,0,0,16,423.168,150)">
            <path d="M0.719,-0.556C0.781,-0.556 0.828,-0.54 0.86,-0.508C0.891,-0.477 0.907,-0.426 0.907,-0.356L0.907,-0L0.758,-0L0.758,-0.319C0.758,-0.398 0.731,-0.437 0.676,-0.437C0.637,-0.437 0.609,-0.423 0.592,-0.395C0.575,-0.367 0.567,-0.327 0.567,-0.274L0.567,-0L0.418,-0L0.418,-0.319C0.418,-0.398 0.391,-0.437 0.336,-0.437C0.295,-0.437 0.266,-0.422 0.251,-0.391C0.235,-0.36 0.227,-0.315 0.227,-0.257L0.227,-0L0.078,-0L0.078,-0.546L0.192,-0.546L0.212,-0.476L0.22,-0.476C0.237,-0.504 0.26,-0.524 0.289,-0.537C0.318,-0.55 0.348,-0.556 0.379,-0.556C0.419,-0.556 0.453,-0.55 0.481,-0.537C0.508,-0.524 0.53,-0.503 0.545,-0.476L0.558,-0.476C0.575,-0.504 0.598,-0.524 0.627,-0.537C0.657,-0.55 0.688,-0.556 0.719,-0.556Z" style="fill-rule:nonzero;"/CAD-EDU/>
        </g>
    </g>
    <g transform="matrix(1,0,0,1,264.464,4.296)">
        <g transform="matrix(16,0,0,16,380,150)">
            <path d="M0.511,-0.554C0.511,-0.505 0.496,-0.465 0.467,-0.436C0.437,-0.407 0.4,-0.387 0.357,-0.376L0.357,-0.373C0.414,-0.366 0.457,-0.348 0.487,-0.32C0.517,-0.292 0.532,-0.255 0.532,-0.208C0.532,-0.167 0.522,-0.13 0.501,-0.097C0.481,-0.064 0.45,-0.038 0.407,-0.019C0.365,0 0.311,0.01 0.244,0.01C0.167,0.01 0.098,-0.003 0.038,-0.029L0.038,-0.157C0.069,-0.142 0.101,-0.13 0.134,-0.122C0.167,-0.114 0.199,-0.11 0.228,-0.11C0.282,-0.11 0.32,-0.119 0.342,-0.138C0.363,-0.157 0.374,-0.183 0.374,-0.217C0.374,-0.236 0.369,-0.253 0.359,-0.267C0.349,-0.281 0.332,-0.292 0.307,-0.299C0.281,-0.306 0.247,-0.309 0.202,-0.309L0.148,-0.309L0.148,-0.425L0.203,-0.425C0.247,-0.425 0.281,-0.429 0.304,-0.438C0.327,-0.446 0.342,-0.457 0.35,-0.471C0.359,-0.486 0.363,-0.502 0.363,-0.521C0.363,-0.546 0.355,-0.566 0.34,-0.581C0.324,-0.595 0.298,-0.602 0.261,-0.602C0.227,-0.602 0.197,-0.596 0.172,-0.584C0.147,-0.572 0.126,-0.561 0.109,-0.55L0.039,-0.654C0.067,-0.674 0.1,-0.691 0.138,-0.704C0.175,-0.717 0.22,-0.724 0.272,-0.724C0.345,-0.724 0.404,-0.709 0.447,-0.68C0.49,-0.65 0.511,-0.608 0.511,-0.554Z" style="fill-rule:nonzero;"/CAD-EDU/>
        </g>
        <g transform="matrix(16,0,0,16,389.152,150)">
            <path d="M0.535,-0.357C0.535,-0.28 0.527,-0.215 0.51,-0.16C0.494,-0.105 0.468,-0.063 0.431,-0.034C0.394,-0.005 0.346,0.01 0.285,0.01C0.199,0.01 0.136,-0.022 0.096,-0.087C0.056,-0.152 0.036,-0.242 0.036,-0.357C0.036,-0.434 0.044,-0.5 0.06,-0.555C0.076,-0.61 0.102,-0.652 0.139,-0.681C0.176,-0.71 0.224,-0.725 0.285,-0.725C0.37,-0.725 0.433,-0.693 0.474,-0.628C0.515,-0.563 0.535,-0.473 0.535,-0.357ZM0.186,-0.357C0.186,-0.276 0.193,-0.215 0.207,-0.173C0.221,-0.133 0.247,-0.112 0.285,-0.112C0.322,-0.112 0.348,-0.132 0.363,-0.173C0.378,-0.214 0.385,-0.275 0.385,-0.357C0.385,-0.438 0.378,-0.5 0.363,-0.541C0.348,-0.582 0.322,-0.603 0.285,-0.603C0.247,-0.603 0.221,-0.582 0.207,-0.541C0.193,-0.5 0.186,-0.438 0.186,-0.357Z" style="fill-rule:nonzero;"/CAD-EDU/>
        </g>
        <g transform="matrix(16,0,0,16,398.304,150)">
            <path d="M0.719,-0.556C0.781,-0.556 0.828,-0.54 0.86,-0.508C0.891,-0.477 0.907,-0.426 0.907,-0.356L0.907,-0L0.758,-0L0.758,-0.319C0.758,-0.398 0.731,-0.437 0.676,-0.437C0.637,-0.437 0.609,-0.423 0.592,-0.395C0.575,-0.367 0.567,-0.327 0.567,-0.274L0.567,-0L0.418,-0L0.418,-0.319C0.418,-0.398 0.391,-0.437 0.336,-0.437C0.295,-0.437 0.266,-0.422 0.251,-0.391C0.235,-0.36 0.227,-0.315 0.227,-0.257L0.227,-0L0.078,-0L0.078,-0.546L0.192,-0.546L0.212,-0.476L0.22,-0.476C0.237,-0.504 0.26,-0.524 0.289,-0.537C0.318,-0.55 0.348,-0.556 0.379,-0.556C0.419,-0.556 0.453,-0.55 0.481,-0.537C0.508,-0.524 0.53,-0.503 0.545,-0.476L0.558,-0.476C0.575,-0.504 0.598,-0.524 0.627,-0.537C0.657,-0.55 0.688,-0.556 0.719,-0.556Z" style="fill-rule:nonzero;"/CAD-EDU/>
        </g>
        <g transform="matrix(16,0,0,16,414.016,150)">
            <path d="M0.719,-0.556C0.781,-0.556 0.828,-0.54 0.86,-0.508C0.891,-0.477 0.907,-0.426 0.907,-0.356L0.907,-0L0.758,-0L0.758,-0.319C0.758,-0.398 0.731,-0.437 0.676,-0.437C0.637,-0.437 0.609,-0.423 0.592,-0.395C0.575,-0.367 0.567,-0.327 0.567,-0.274L0.567,-0L0.418,-0L0.418,-0.319C0.418,-0.398 0.391,-0.437 0.336,-0.437C0.295,-0.437 0.266,-0.422 0.251,-0.391C0.235,-0.36 0.227,-0.315 0.227,-0.257L0.227,-0L0.078,-0L0.078,-0.546L0.192,-0.546L0.212,-0.476L0.22,-0.476C0.237,-0.504 0.26,-0.524 0.289,-0.537C0.318,-0.55 0.348,-0.556 0.379,-0.556C0.419,-0.556 0.453,-0.55 0.481,-0.537C0.508,-0.524 0.53,-0.503 0.545,-0.476L0.558,-0.476C0.575,-0.504 0.598,-0.524 0.627,-0.537C0.657,-0.55 0.688,-0.556 0.719,-0.556Z" style="fill-rule:nonzero;"/CAD-EDU/>
        </g>
        <g transform="matrix(16,0,0,16,429.728,150)">
            <path d="M0.738,-0.358C0.738,-0.284 0.726,-0.22 0.702,-0.165C0.677,-0.11 0.64,-0.067 0.59,-0.036C0.539,-0.005 0.475,0.01 0.398,0.01C0.335,0.01 0.28,-0.001 0.234,-0.022L0.19,0.044L0.111,-0.009L0.155,-0.075C0.122,-0.108 0.098,-0.148 0.082,-0.196C0.066,-0.244 0.058,-0.298 0.058,-0.359C0.058,-0.433 0.07,-0.497 0.095,-0.552C0.119,-0.607 0.156,-0.649 0.206,-0.68C0.257,-0.71 0.321,-0.725 0.399,-0.725C0.432,-0.725 0.462,-0.722 0.49,-0.717C0.518,-0.711 0.544,-0.702 0.567,-0.691L0.608,-0.752L0.686,-0.701L0.643,-0.637C0.675,-0.605 0.699,-0.565 0.715,-0.518C0.73,-0.47 0.738,-0.417 0.738,-0.358ZM0.217,-0.358C0.217,-0.328 0.219,-0.3 0.224,-0.275C0.228,-0.25 0.235,-0.227 0.244,-0.208L0.491,-0.577C0.465,-0.592 0.434,-0.599 0.399,-0.599C0.335,-0.599 0.289,-0.578 0.26,-0.535C0.231,-0.492 0.217,-0.433 0.217,-0.358ZM0.579,-0.358C0.579,-0.417 0.571,-0.466 0.554,-0.503L0.31,-0.136C0.322,-0.13 0.335,-0.125 0.35,-0.122C0.365,-0.119 0.381,-0.117 0.398,-0.117C0.463,-0.117 0.509,-0.139 0.537,-0.182C0.565,-0.225 0.579,-0.283 0.579,-0.358Z" style="fill-rule:nonzero;"/CAD-EDU/>
        </g>
    </g>
</svg>
