<?xml version="1.0" encoding="UTF-8" standalone="no"?>
<!DOCTYPE svg PUBLIC "-//W3C//DTD SVG 1.1//EN" "http://www.w3.org/Graphics/SVG/1.1/DTD/svg11.dtd">
<svg width="100%" height="100%" viewBox="0 0 50 50" version="1.1" xmlns="http://www.w3.org/2000/svg" xmlns:xlink="http://www.w3.org/1999/xlink" xml:space="preserve" xmlns:serif="http://www.serif.com/" style="fill-rule:evenodd;clip-rule:evenodd;stroke-linejoin:round;stroke-miterlimit:2;">
    <g>
        <path d="M23.5,23.5L18,23.5C17.172,23.5 16.5,24.172 16.5,25C16.5,25.828 17.172,26.5 18,26.5L23.5,26.5L23.5,32C23.5,32.828 24.172,33.5 25,33.5C25.828,33.5 26.5,32.828 26.5,32L26.5,26.5L32,26.5C32.828,26.5 33.5,25.828 33.5,25C33.5,24.172 32.828,23.5 32,23.5L26.5,23.5L26.5,18C26.5,17.172 25.828,16.5 25,16.5C24.172,16.5 23.5,17.172 23.5,18L23.5,23.5Z"/>
    </g>
</svg>
