<?xml version="1.0" encoding="UTF-8" standalone="no"?>
<!DOCTYPE svg PUBLIC "-//W3C//DTD SVG 1.1//EN" "http://www.w3.org/Graphics/SVG/1.1/DTD/svg11.dtd">
<svg width="100%" height="100%" viewBox="0 0 170 115" version="1.1" xmlns="http://www.w3.org/2000/svg" xmlns:xlink="http://www.w3.org/1999/xlink" xml:space="preserve" xmlns:serif="http://www.serif.com/" style="fill-rule:evenodd;clip-rule:evenodd;stroke-linejoin:round;stroke-miterlimit:2;">
    <g id="Artboard1" transform="matrix(0.378309,0,0,1.08328,0,0)">
        <rect x="0" y="0" width="449.368" height="106.159" style="fill:none;"/>
        <g id="EDU">
            <g transform="matrix(2.64334,0,0,0.92312,0,0)">
                <path d="M5,60L55,60L55,71L52,71C52,71 51.68,69.4 51.402,68.01C51.168,66.841 50.142,66 48.95,66C41.46,66 16,66 16,66L16,79.5C16,80.163 16.263,80.799 16.732,81.268C17.201,81.737 17.837,82 18.5,82C21.042,82 24.958,82 27.5,82C28.881,82 30,80.881 30,79.5C30,79.201 30,79 30,79L33,79L33,91L30,91L30,90.5C30,89.119 28.881,88 27.5,88C24.958,88 21.042,88 18.5,88C17.837,88 17.201,88.263 16.732,88.732C16.263,89.201 16,89.837 16,90.5C16,95 16,104 16,104L48.95,104C50.142,104 51.168,103.159 51.402,101.99C51.68,100.6 52,99 52,99L55,99L55,110L5,110L5,107L7.5,107C8.163,107 8.799,106.737 9.268,106.268C9.737,105.799 10,105.163 10,104.5C10,96.759 10,73.241 10,65.5C10,64.837 9.737,64.201 9.268,63.732C8.799,63.263 8.163,63 7.5,63C6.25,63 5,63 5,63L5,60Z" style="fill:rgb(240,201,116);"/>
            </g>
            <g transform="matrix(2.64334,0,0,0.92312,0,0)">
                <path d="M60,60L60,63L62.5,63C63.163,63 63.799,63.263 64.268,63.732C64.737,64.201 65,64.837 65,65.5C65,73.241 65,96.759 65,104.5C65,105.163 64.737,105.799 64.268,106.268C63.799,106.737 63.163,107 62.5,107C61.25,107 60,107 60,107L60,110L71,110L71,68.5C71,67.837 71.263,67.201 71.732,66.732C72.201,66.263 72.837,66 73.5,66C76.731,66 82.267,66 85,66C95.5,66 104,74.5 104,85C104,95.5 95.5,104 85,104L77,104L77,110L85,110C99,110 110,99 110,85C110,71 99,60 85,60L60,60Z" style="fill:rgb(240,201,116);"/>
            </g>
            <g transform="matrix(2.64334,0,0,0.92312,0,0)">
                <path d="M154,65.5C154,64.119 152.881,63 151.5,63C150.692,63 150,63 150,63L150,60L165,60L165,63L162.5,63C161.119,63 160,64.119 160,65.5C160,72.365 160,91 160,91C160,102 150.995,111 140,111C128.962,111 120,102.038 120,91L120,65.5C120,64.119 118.881,63 117.5,63C116.25,63 115,63 115,63L115,60L130,60L130,63L128.5,63C127.119,63 126,64.119 126,65.5C126,72.365 126,91 126,91C126,98.697 132.303,105 140,105C147.727,105 154,98.727 154,91L154,65.5Z" style="fill:rgb(240,201,116);"/>
            </g>
        </g>
        <g id="CAD">
            <g transform="matrix(2.64334,0,0,0.92312,0,0)">
                <path d="M72.739,41C72.33,41 71.963,41.249 71.811,41.629C70.881,43.953 67.643,52.047 66.714,54.371C66.562,54.751 66.194,55 65.785,55C64.77,55 62.829,55 61.477,55C61.145,55 60.835,54.835 60.649,54.561C60.463,54.286 60.425,53.937 60.549,53.629C63.526,46.186 77.684,10.791 79.749,5.629C79.9,5.249 80.268,5 80.677,5C82.5,5 87.5,5 89.323,5C89.732,5 90.1,5.249 90.251,5.629C92.316,10.791 106.474,46.186 109.451,53.629C109.575,53.937 109.537,54.286 109.351,54.561C109.165,54.835 108.855,55 108.523,55C107.171,55 105.23,55 104.215,55C103.806,55 103.438,54.751 103.286,54.371C102.357,52.047 99.119,43.953 98.189,41.629C98.037,41.249 97.67,41 97.261,41C93.618,41 76.382,41 72.739,41ZM94.061,35C94.393,35 94.703,34.835 94.889,34.561C95.075,34.286 95.112,33.937 94.989,33.628C93.222,29.209 87.707,15.424 86.279,11.852C86.069,11.337 85.568,11 85.012,11C85.004,11 84.996,11 84.988,11C84.429,11 83.926,11.34 83.718,11.859C82.285,15.442 76.777,29.213 75.011,33.629C74.888,33.937 74.925,34.286 75.111,34.561C75.297,34.835 75.607,35 75.939,35C79.806,35 90.194,35 94.061,35Z"/>
            </g>
            <g transform="matrix(2.64334,0,0,0.92312,15.8601,0)">
                <path d="M47.31,47.307C47.501,47.499 47.607,47.759 47.603,48.03C47.599,48.3 47.486,48.558 47.289,48.743C42.739,52.936 36.667,55.5 30,55.5C15.926,55.5 4.5,44.074 4.5,30C4.5,15.926 15.926,4.5 30,4.5C36.667,4.5 42.739,7.064 47.285,11.259C47.481,11.443 47.594,11.7 47.598,11.969C47.602,12.239 47.497,12.499 47.306,12.689C46.516,13.484 45.252,14.748 44.473,15.527C44.093,15.907 43.48,15.918 43.086,15.552C39.627,12.412 35.035,10.5 30,10.5C19.238,10.5 10.5,19.238 10.5,30C10.5,40.762 19.238,49.5 30,49.5C35.035,49.5 39.627,47.587 43.089,44.449C43.482,44.085 44.092,44.096 44.471,44.475C45.253,45.251 46.517,46.515 47.31,47.307Z"/>
            </g>
            <g transform="matrix(2.64334,0,0,0.92312,0,0)">
                <path d="M140,5C153.798,5 165,16.202 165,30C165,43.798 153.798,55 140,55L116,55C115.448,55 115,54.552 115,54C115,47.596 115,12.404 115,6C115,5.448 115.448,5 116,5C120.658,5 140,5 140,5ZM140,11L122,11C121.448,11 121,11.448 121,12C121,17.36 121,42.64 121,48C121,48.552 121.448,49 122,49C125.917,49 140,49 140,49C150.486,49 159,40.486 159,30C159,19.514 150.486,11 140,11Z"/>
            </g>
        </g>
    </g>
</svg>
